<svg width="340" height="340" viewBox="0 0 340 340" fill="none" xmlns="http://www.w3.org/2000/svg">
<path d="M133.482 189.321H183.818L120.687 46H72.8208L9.6897 189.321H59.2127L68.8933 164.338H123.817L133.497 189.321H133.482ZM82.3633 129.535L96.3396 93.4387L110.316 129.535H82.348H82.3633Z" fill="#111111"/>
<path d="M239.995 111.037C231.586 104.287 219.739 100.918 204.445 100.918C197.499 100.918 190.396 101.778 183.124 103.487C175.852 105.207 169.62 107.668 164.417 110.882L176.13 134.823C179.058 132.685 182.58 131 186.706 129.758C190.832 128.527 194.898 127.906 198.915 127.906C204.88 127.906 209.188 129.029 211.85 131.275C213.871 132.983 215.117 135.289 215.601 138.18H200.863C191.643 138.18 184.019 139.196 178.006 141.238C171.98 143.269 167.515 146.268 164.574 150.234C161.646 154.201 160.182 159.015 160.182 164.69C160.182 169.732 161.428 174.307 163.921 178.429C166.414 182.551 170.104 185.848 174.981 188.309C179.857 190.77 185.931 192 193.204 192C200.911 192 207.034 190.4 211.596 187.186C214.524 185.119 216.799 182.347 218.433 178.907V190.4H252.604V143.174C252.604 128.503 248.405 117.787 239.995 111.037ZM211.197 168.155C209.079 169.493 206.78 170.162 204.287 170.162C201.577 170.162 199.435 169.493 197.862 168.155C196.289 166.817 195.503 165.132 195.503 163.089C195.503 160.628 196.398 158.776 198.189 157.546C199.98 156.315 202.823 155.694 206.732 155.694H215.843V161.799C214.863 164.69 213.326 166.805 211.209 168.143L211.197 168.155Z" fill="#111111"/>
<path d="M266.188 161.56H212.822C193.347 161.56 177.559 177.347 177.559 196.822V250.188C177.559 269.663 193.347 285.45 212.822 285.45H266.188C285.663 285.45 301.45 269.663 301.45 250.188V196.822C301.45 177.347 285.663 161.56 266.188 161.56Z" fill="#376CF2"/>
<path d="M320.661 158.89H158.339C157.6 158.89 157 159.487 157 160.224C157 160.961 157.6 161.559 158.339 161.559H320.661C321.4 161.559 322 160.961 322 160.224C322 159.487 321.4 158.89 320.661 158.89Z" fill="#CCCCCC"/>
<path d="M320.661 285.44H158.339C157.6 285.44 157 286.038 157 286.775C157 287.512 157.6 288.11 158.339 288.11H320.661C321.4 288.11 322 287.512 322 286.775C322 286.038 321.4 285.44 320.661 285.44Z" fill="#CCCCCC"/>
<path d="M304.119 304.661V142.339C304.119 141.6 303.522 141 302.785 141C302.047 141 301.45 141.6 301.45 142.339V304.661C301.45 305.4 302.047 306 302.785 306C303.522 306 304.119 305.4 304.119 304.661Z" fill="#CCCCCC"/>
<path d="M177.56 304.661V142.339C177.56 141.6 176.962 141 176.225 141C175.488 141 174.89 141.6 174.89 142.339V304.661C174.89 305.4 175.488 306 176.225 306C176.962 306 177.56 305.4 177.56 304.661Z" fill="#CCCCCC"/>
</svg>
