<svg width="340" height="340" viewBox="0 0 340 340" fill="none" xmlns="http://www.w3.org/2000/svg">
<path d="M194.1 80.105L123.69 39.455C120.33 37.515 116.2 37.515 112.84 39.455L42.43 80.105C39.07 82.045 37 85.625 37 89.505V170.805C37 174.685 39.07 178.265 42.43 180.205L112.84 220.855C116.2 222.795 120.33 222.795 123.69 220.855L194.1 180.205C197.46 178.265 199.53 174.685 199.53 170.805V89.505C199.53 85.625 197.46 82.045 194.1 80.105ZM118.26 164.635C98.34 164.635 82.2 148.485 82.2 128.575C82.2 108.665 98.35 92.515 118.26 92.515C138.17 92.515 154.32 108.665 154.32 128.575C154.32 148.485 138.17 164.635 118.26 164.635Z" fill="#000111"/>
<path d="M214.02 124.237L243.174 174.724C245.993 179.605 244.318 185.855 239.437 188.674L221.934 198.773C217.052 201.592 210.803 199.917 207.984 195.036L178.829 144.548C160.826 165.013 157.323 195.74 172.764 220.32C190.614 248.73 228.081 258.308 257.389 241.969C288.423 224.681 299.197 185.396 281.5 154.729C267.52 130.527 239.999 119.018 214.02 124.237Z" fill="#00B2FF"/>
<path d="M223.374 221.699L264.13 292.283C269.715 301.964 282.205 305.303 291.885 299.717C301.566 294.131 304.906 281.642 299.32 271.961L258.564 201.377L223.374 221.688V221.699Z" fill="#00B2FF"/>
</svg>
