<svg width="340" height="340" viewBox="0 0 340 340" fill="none" xmlns="http://www.w3.org/2000/svg">
<path d="M78.0303 203V214.49C78.0303 223.81 85.6103 231.39 94.9303 231.39H124.17C133.49 231.39 141.07 223.81 141.07 214.49V203H78.0303Z" fill="black"/>
<path d="M109.55 38C69.54 38 37 70.54 37 110.55C37 134.56 48.69 156.65 68.42 170.24V179.87C68.42 189.18 76 196.76 85.31 196.76H104.41V142.52H84.85C82.25 142.52 80.14 140.41 80.14 137.81C80.14 135.21 82.25 133.1 84.85 133.1H134.24C136.84 133.1 138.95 135.21 138.95 137.81C138.95 140.41 136.84 142.52 134.24 142.52H114.68V196.76H133.78C143.09 196.76 150.67 189.18 150.67 179.87V170.24C170.4 156.65 182.09 134.57 182.09 110.55C182.09 70.54 149.55 38 109.55 38Z" fill="black"/>
<path d="M284.771 240.922L222.088 277.112L236.088 301.361L298.771 265.171L284.771 240.922Z" fill="#17DA88"/>
<path d="M279.393 176.847L186.542 124.384C184.686 123.331 182.721 122.906 180.816 122.967L219.371 189.746C227.962 187.407 237.38 190.999 242.045 199.079C247.595 208.692 244.301 220.987 234.688 226.537C225.075 232.087 212.781 228.792 207.231 219.179C202.566 211.099 204.164 201.147 210.486 194.876L171.931 128.097C170.921 129.708 170.31 131.631 170.295 133.764L169.286 240.417C169.246 244.528 171.521 248.307 175.16 250.19L224.421 275.754L282.419 242.269L284.911 186.825C285.095 182.723 282.959 178.864 279.384 176.852L279.393 176.847Z" fill="#17DA88"/>
</svg>
