<svg width="32" height="32" viewBox="0 0 32 32" fill="none" xmlns="http://www.w3.org/2000/svg">
<path d="M26.472 18.6961C29.144 16.0241 29.848 12.1441 28.6 8.82414C28.56 8.71214 28.416 8.68814 28.328 8.76814L25.656 11.4401L23.12 13.9761C22.36 14.7361 21.12 14.7361 20.36 13.9761L18.016 11.6321C17.256 10.8721 17.256 9.63214 18.016 8.87214L23.224 3.66414C23.304 3.58414 23.28 3.44014 23.168 3.39214C19.856 2.14414 15.968 2.85614 13.296 5.52014C10.432 8.38414 9.84003 12.6401 11.48 16.0961L3.34403 24.2481C2.59203 25.0001 2.59203 26.2241 3.34403 26.9841L5.02403 28.6641C5.77603 29.4161 7.00803 29.4161 7.76003 28.6641L15.904 20.5201C19.36 22.1601 23.616 21.5601 26.48 18.7041L26.472 18.6961Z" stroke="#CCCCCC" stroke-width="1.5" stroke-miterlimit="10"/>
</svg>
