<svg width="32" height="32" viewBox="0 0 32 32" fill="none" xmlns="http://www.w3.org/2000/svg">
<path d="M10.8559 21.3437C8.12789 19.6317 6.31189 16.6077 6.31189 13.1517C6.31189 7.79968 10.6479 3.47168 15.9919 3.47168C21.3359 3.47168 25.6719 7.80768 25.6719 13.1517C25.6719 16.6077 23.8559 19.6317 21.1279 21.3437V23.1677C21.1279 24.0717 20.3919 24.8077 19.4879 24.8077H12.4959C11.5919 24.8077 10.8559 24.0717 10.8559 23.1677V21.3437Z" stroke="#CCCCCC" stroke-width="1.5" stroke-miterlimit="10" stroke-linecap="round"/>
<path d="M12.6238 24.8076H19.3678V26.3756C19.3678 27.2156 18.6798 27.9036 17.8398 27.9036H14.1438C13.3038 27.9036 12.6158 27.2156 12.6158 26.3756V24.8076H12.6238Z" stroke="#CCCCCC" stroke-width="1.5" stroke-miterlimit="10" stroke-linecap="round"/>
<path d="M15.9999 16.8633V24.8073" stroke="#CCCCCC" stroke-width="1.5" stroke-miterlimit="10" stroke-linecap="round"/>
<path d="M19.3759 16.8633H12.6239" stroke="#CCCCCC" stroke-width="1.5" stroke-miterlimit="10" stroke-linecap="round"/>
</svg>
