<svg width="32" height="32" viewBox="0 0 32 32" fill="none" xmlns="http://www.w3.org/2000/svg">
<path d="M24.8801 4.94434H7.12009C6.53687 4.94434 6.06409 5.41712 6.06409 6.00034V10.2883C6.06409 10.8715 6.53687 11.3443 7.12009 11.3443H24.8801C25.4633 11.3443 25.9361 10.8715 25.9361 10.2883V6.00034C25.9361 5.41712 25.4633 4.94434 24.8801 4.94434Z" stroke="#CCCCCC" stroke-width="1.5" stroke-linecap="round" stroke-linejoin="round"/>
<path d="M17.72 20.376V27.8C17.72 28.368 17.256 28.832 16.688 28.832H15.32C14.752 28.832 14.288 28.368 14.288 27.8V20.376H17.72Z" stroke="#CCCCCC" stroke-width="1.5" stroke-linecap="round" stroke-linejoin="round"/>
<path d="M6.06403 8.14453H4.52003C3.96003 8.14453 3.50403 8.60053 3.50403 9.16053V13.8565C3.50403 14.5205 4.00003 15.0805 4.65603 15.1605L15.312 16.5205C15.712 16.5685 16.008 16.9125 16.008 17.3125V20.0805" stroke="#CCCCCC" stroke-width="1.5" stroke-linecap="round" stroke-linejoin="round"/>
</svg>
