<svg width="32" height="32" viewBox="0 0 32 32" fill="none" xmlns="http://www.w3.org/2000/svg">
<path d="M17.0241 5.29614C14.4321 5.21614 12.8161 5.73614 12.8161 5.73614C12.8161 5.73614 9.57611 3.49614 8.88011 4.16014C8.14411 4.85614 8.58411 8.45614 8.58411 8.45614C8.58411 8.45614 3.07211 19.2321 14.1841 20.0801" stroke="#CCCCCC" stroke-width="1.5" stroke-miterlimit="10" stroke-linecap="round"/>
<path d="M17.024 5.29614C19.616 5.21614 21.232 5.73614 21.232 5.73614C21.232 5.73614 24.472 3.49614 25.168 4.16014C25.904 4.85614 25.464 8.45614 25.464 8.45614C25.464 8.45614 30.976 19.2321 19.864 20.0801" stroke="#CCCCCC" stroke-width="1.5" stroke-miterlimit="10" stroke-linecap="round"/>
<path d="M12.7999 27.9599V23.2879C12.7999 23.2879 12.7039 20.7279 14.3199 20.0879" stroke="#CCCCCC" stroke-width="1.5" stroke-miterlimit="10" stroke-linecap="round"/>
<path d="M21.24 27.9599V23.2879C21.24 23.2879 21.336 20.7279 19.72 20.0879" stroke="#CCCCCC" stroke-width="1.5" stroke-miterlimit="10" stroke-linecap="round"/>
<path d="M5.16797 20.8721C6.23997 21.2721 6.39197 22.1761 7.69597 23.6961C9.46397 25.7601 12.48 25.0881 12.48 25.0881" stroke="#CCCCCC" stroke-width="2" stroke-miterlimit="10" stroke-linecap="round"/>
</svg>
