<svg width="32" height="32" viewBox="0 0 32 32" fill="none" xmlns="http://www.w3.org/2000/svg">
<path d="M28.2934 7.13507L16.1546 2L1 8.41163L16.1546 14.8209L28.2934 9.68818L30 8.96697V7.85629L28.2934 7.13507ZM16.1546 12.9914L5.32745 8.41163L16.1546 3.83189L26.9842 8.41163L16.1546 12.9914Z" fill="#111111"/>
<path d="M28.2934 21.3138L16.1546 16.1787L1 22.5903L16.1546 28.9996L28.2934 23.8669L30 23.1457V22.035L28.2934 21.3138ZM16.1546 27.1701L5.32745 22.5903L16.1546 18.0106L26.9842 22.5903L16.1546 27.1701Z" fill="#111111"/>
<path d="M17.0079 13.9053H15.3013V28.0844H17.0079V13.9053Z" fill="#111111"/>
<path d="M30.0001 7.85598V23.1458L28.2935 23.867V7.13477L30.0001 7.85598Z" fill="#111111"/>
</svg>
