<?xml version="1.0" encoding="utf-8"?>
<!-- Generator: Adobe Illustrator 26.3.1, SVG Export Plug-In . SVG Version: 6.00 Build 0)  -->
<svg version="1.1" id="Layer_1" xmlns="http://www.w3.org/2000/svg" xmlns:xlink="http://www.w3.org/1999/xlink" x="0px" y="0px"
	 viewBox="0 0 24 24" style="enable-background:new 0 0 24 24;" xml:space="preserve">
<style type="text/css">
	.st0{fill-rule:evenodd;clip-rule:evenodd;fill:#FFFFFF;}
</style>
<path class="st0" d="M19.8,5.4c0.9,0.2,1.5,0.9,1.8,1.8C22,8.8,22,12,22,12s0,3.2-0.4,4.8c-0.2,0.9-0.9,1.5-1.8,1.8
	C18.3,19,12,19,12,19s-6.2,0-7.8-0.4c-0.9-0.2-1.5-0.9-1.8-1.8C2,15.3,2,12,2,12s0-3.2,0.4-4.8c0.2-0.9,0.9-1.5,1.8-1.8
	C5.7,5,12,5,12,5S18.3,5,19.8,5.4z M15.2,11.9l-5.2,3v-6L15.2,11.9z"/>
</svg>
