<?xml version="1.0" encoding="utf-8"?>
<!-- Generator: Adobe Illustrator 26.3.1, SVG Export Plug-In . SVG Version: 6.00 Build 0)  -->
<svg version="1.1" id="Layer_1" xmlns="http://www.w3.org/2000/svg" xmlns:xlink="http://www.w3.org/1999/xlink" x="0px" y="0px"
	 viewBox="0 0 24 24" style="enable-background:new 0 0 24 24;" xml:space="preserve">
<style type="text/css">
	.st0{fill:#FFFFFF;}
</style>
<path class="st0" d="M12,3.3c-2.4,0-2.7,0-3.6,0.1c-0.9,0-1.6,0.2-2.1,0.4C5.7,4,5.2,4.3,4.7,4.7c-0.5,0.5-0.8,1-1,1.5
	C3.5,6.8,3.4,7.5,3.3,8.4c0,0.9-0.1,1.2-0.1,3.6c0,2.4,0,2.7,0.1,3.6c0,0.9,0.2,1.6,0.4,2.1c0.2,0.6,0.5,1.1,1,1.5
	c0.5,0.5,1,0.8,1.5,1c0.6,0.2,1.2,0.4,2.1,0.4c0.9,0,1.2,0.1,3.6,0.1c2.4,0,2.7,0,3.6-0.1c0.9,0,1.6-0.2,2.1-0.4
	c0.6-0.2,1.1-0.5,1.5-1c0.5-0.5,0.8-1,1-1.5c0.2-0.6,0.4-1.2,0.4-2.1c0-0.9,0.1-1.2,0.1-3.6c0-2.4,0-2.7-0.1-3.6
	c0-0.9-0.2-1.6-0.4-2.1c-0.2-0.6-0.5-1.1-1-1.5c-0.5-0.5-1-0.8-1.5-1c-0.6-0.2-1.2-0.4-2.1-0.4C14.7,3.3,14.4,3.3,12,3.3L12,3.3z
	 M11.2,4.8c0.2,0,0.5,0,0.8,0c2.3,0,2.6,0,3.5,0.1c0.9,0,1.3,0.2,1.6,0.3c0.4,0.2,0.7,0.3,1,0.7c0.3,0.3,0.5,0.6,0.7,1
	c0.1,0.3,0.3,0.8,0.3,1.6c0,0.9,0.1,1.2,0.1,3.5c0,2.3,0,2.6-0.1,3.5c0,0.9-0.2,1.3-0.3,1.6c-0.2,0.4-0.3,0.7-0.7,1
	c-0.3,0.3-0.6,0.5-1,0.7c-0.3,0.1-0.8,0.3-1.6,0.3c-0.9,0-1.2,0.1-3.5,0.1c-2.3,0-2.6,0-3.5-0.1c-0.9,0-1.3-0.2-1.6-0.3
	c-0.4-0.2-0.7-0.3-1-0.7c-0.3-0.3-0.5-0.6-0.7-1c-0.1-0.3-0.3-0.8-0.3-1.6c0-0.9-0.1-1.2-0.1-3.5c0-2.3,0-2.6,0.1-3.5
	c0-0.9,0.2-1.3,0.3-1.6c0.2-0.4,0.3-0.7,0.7-1c0.3-0.3,0.6-0.5,1-0.7c0.3-0.1,0.8-0.3,1.6-0.3C9.3,4.9,9.6,4.8,11.2,4.8L11.2,4.8z
	 M16.7,6.3c-0.6,0-1,0.5-1,1c0,0.6,0.5,1,1,1s1-0.5,1-1S17.2,6.3,16.7,6.3L16.7,6.3z M12,7.5c-2.5,0-4.5,2-4.5,4.5
	c0,2.5,2,4.5,4.5,4.5c2.5,0,4.5-2,4.5-4.5C16.5,9.5,14.5,7.5,12,7.5L12,7.5z M12,9.1c1.6,0,2.9,1.3,2.9,2.9c0,1.6-1.3,2.9-2.9,2.9
	c-1.6,0-2.9-1.3-2.9-2.9C9.1,10.4,10.4,9.1,12,9.1z"/>
</svg>
