<svg width="670" height="670" viewBox="0 0 670 670" fill="none" xmlns="http://www.w3.org/2000/svg">
<g clip-path="url(#clip0_648_30910)">
<path d="M629.63 139.199L349.601 19L0 169.08L329.916 310.662V359.338L0 500.977L349.601 651L629.63 530.858L669 513.976V156.081L629.63 139.199ZM349.601 61.8799L599.429 169.08L349.601 276.279L99.8298 169.08L349.601 61.8799ZM329.916 402.218V599.735L99.8298 500.977L329.916 402.218ZM369.286 599.735V402.274L599.429 501.033L369.286 599.792V599.735ZM369.286 359.394V310.662L629.63 198.96V471.096L369.286 359.338V359.394Z" fill="#2C2C2C"/>
</g>
<defs>
<clipPath id="clip0_648_30910">
<rect width="669" height="632" fill="white" transform="translate(0 19)"/>
</clipPath>
</defs>
</svg>
